<mxfile host="app.diagrams.net" modified="2023-05-29T10:21:58.169Z" agent="Mozilla/5.0 (Windows NT 10.0; Win64; x64) AppleWebKit/537.36 (KHTML, like Gecko) Chrome/113.0.0.0 Safari/537.36" etag="09dLROQ4bqfK2MMeqXyI" version="21.3.4" type="github">
  <diagram name="Page-1" id="13e1069c-82ec-6db2-03f1-153e76fe0fe0">
    <mxGraphModel dx="995" dy="507" grid="1" gridSize="10" guides="1" tooltips="1" connect="1" arrows="1" fold="1" page="1" pageScale="1" pageWidth="1100" pageHeight="850" background="none" math="0" shadow="0">
      <root>
        <mxCell id="0" />
        <mxCell id="1" parent="0" />
        <mxCell id="2zeuLS3NNm6lrcodeA-V-76" value="" style="edgeStyle=elbowEdgeStyle;elbow=horizontal;endArrow=none;dashed=1;rounded=0;" edge="1" parent="1" source="2zeuLS3NNm6lrcodeA-V-55">
          <mxGeometry x="335" y="400" width="100" height="100" as="geometry">
            <mxPoint x="335" y="500" as="sourcePoint" />
            <mxPoint x="310" y="560" as="targetPoint" />
          </mxGeometry>
        </mxCell>
        <mxCell id="2zeuLS3NNm6lrcodeA-V-138" value="" style="edgeStyle=none;endArrow=none;dashed=1;rounded=0;" edge="1" parent="1" source="2zeuLS3NNm6lrcodeA-V-135">
          <mxGeometry x="899.4050694444445" y="254.92" width="100" height="100" as="geometry">
            <mxPoint x="975.07" y="199.92" as="sourcePoint" />
            <mxPoint x="975" y="550" as="targetPoint" />
          </mxGeometry>
        </mxCell>
        <mxCell id="2zeuLS3NNm6lrcodeA-V-137" value="" style="edgeStyle=none;endArrow=none;dashed=1;rounded=0;" edge="1" parent="1">
          <mxGeometry x="543.7650694444445" y="255" width="100" height="100" as="geometry">
            <mxPoint x="619.4300000000001" y="200" as="sourcePoint" />
            <mxPoint x="619" y="550" as="targetPoint" />
          </mxGeometry>
        </mxCell>
        <mxCell id="2zeuLS3NNm6lrcodeA-V-53" value="" style="fillColor=#CC4125;strokeColor=#660000" vertex="1" parent="1">
          <mxGeometry x="305" y="240" width="10" height="280" as="geometry" />
        </mxCell>
        <mxCell id="2zeuLS3NNm6lrcodeA-V-54" value="validate()" style="edgeStyle=none;verticalLabelPosition=top;verticalAlign=bottom;labelPosition=left;align=right;rounded=0;" edge="1" parent="1">
          <mxGeometry x="215" y="139.5" width="100" height="100" as="geometry">
            <mxPoint x="215" y="239.5" as="sourcePoint" />
            <mxPoint x="305" y="239.5" as="targetPoint" />
          </mxGeometry>
        </mxCell>
        <mxCell id="2zeuLS3NNm6lrcodeA-V-55" value="前端导入表单" style="shadow=1;fillColor=#A2C4C9;strokeColor=none" vertex="1" parent="1">
          <mxGeometry x="257.5" y="150" width="105" height="50" as="geometry" />
        </mxCell>
        <mxCell id="2zeuLS3NNm6lrcodeA-V-56" value="" style="fillColor=#CC4125;strokeColor=#660000" vertex="1" parent="1">
          <mxGeometry x="447.5" y="270" width="10" height="80" as="geometry" />
        </mxCell>
        <mxCell id="2zeuLS3NNm6lrcodeA-V-57" value="Restful:&#xa;DataImportController" style="shadow=1;fillColor=#A2C4C9;strokeColor=none" vertex="1" parent="1">
          <mxGeometry x="400" y="150" width="105" height="50" as="geometry" />
        </mxCell>
        <mxCell id="2zeuLS3NNm6lrcodeA-V-58" value="" style="edgeStyle=none;endArrow=none;dashed=1;rounded=0;" edge="1" parent="1" source="2zeuLS3NNm6lrcodeA-V-57" target="2zeuLS3NNm6lrcodeA-V-56">
          <mxGeometry x="377.3350694444445" y="255" width="100" height="100" as="geometry">
            <mxPoint x="452.2588734567901" y="200" as="sourcePoint" />
            <mxPoint x="452.5761959876544" y="255" as="targetPoint" />
          </mxGeometry>
        </mxCell>
        <mxCell id="2zeuLS3NNm6lrcodeA-V-59" value="dataImport()" style="edgeStyle=none;verticalLabelPosition=top;verticalAlign=bottom;rounded=0;" edge="1" parent="1">
          <mxGeometry x="325" y="187" width="100" height="100" as="geometry">
            <mxPoint x="315" y="274.5" as="sourcePoint" />
            <mxPoint x="445" y="274.5" as="targetPoint" />
          </mxGeometry>
        </mxCell>
        <mxCell id="2zeuLS3NNm6lrcodeA-V-60" value="" style="edgeStyle=none;verticalLabelPosition=top;verticalAlign=bottom;endArrow=none;startArrow=classic;dashed=1;rounded=0;" edge="1" parent="1">
          <mxGeometry x="325" y="262.2588734567901" width="100" height="100" as="geometry">
            <mxPoint x="315" y="349.7588734567901" as="sourcePoint" />
            <mxPoint x="445" y="349.7588734567901" as="targetPoint" />
          </mxGeometry>
        </mxCell>
        <mxCell id="2zeuLS3NNm6lrcodeA-V-61" value="" style="edgeStyle=none;verticalLabelPosition=top;verticalAlign=bottom;labelPosition=left;align=right;endArrow=none;startArrow=classic;dashed=1;rounded=0;" edge="1" parent="1">
          <mxGeometry x="215" y="174.75887345679013" width="100" height="100" as="geometry">
            <mxPoint x="215" y="274.7588734567901" as="sourcePoint" />
            <mxPoint x="305" y="274.7588734567901" as="targetPoint" />
          </mxGeometry>
        </mxCell>
        <mxCell id="2zeuLS3NNm6lrcodeA-V-62" value="dataValid()" style="edgeStyle=none;verticalLabelPosition=top;verticalAlign=bottom;dashed=1;rounded=0;entryX=0.092;entryY=0.064;entryDx=0;entryDy=0;entryPerimeter=0;" edge="1" parent="1">
          <mxGeometry y="-8" width="100" height="100" as="geometry">
            <mxPoint x="457.5" y="283.20563271604937" as="sourcePoint" />
            <mxPoint x="615.7" y="283.8009599999999" as="targetPoint" />
            <mxPoint as="offset" />
          </mxGeometry>
        </mxCell>
        <mxCell id="2zeuLS3NNm6lrcodeA-V-63" value="DataImportService" style="shadow=1;fillColor=#A2C4C9;strokeColor=none" vertex="1" parent="1">
          <mxGeometry x="567.2839506172838" y="150" width="105" height="50" as="geometry" />
        </mxCell>
        <mxCell id="2zeuLS3NNm6lrcodeA-V-65" value="" style="fillColor=#CC4125;strokeColor=#660000" vertex="1" parent="1">
          <mxGeometry x="614.78" y="280" width="10" height="230" as="geometry" />
        </mxCell>
        <mxCell id="2zeuLS3NNm6lrcodeA-V-66" value="EasyExcel分片&#xa;DataReadListener" style="edgeStyle=elbowEdgeStyle;elbow=vertical;verticalLabelPosition=top;verticalAlign=bottom;rounded=0;" edge="1" parent="1">
          <mxGeometry x="455" y="413" width="100" height="100" as="geometry">
            <mxPoint x="457.5" y="348" as="sourcePoint" />
            <mxPoint x="614.78" y="348" as="targetPoint" />
          </mxGeometry>
        </mxCell>
        <mxCell id="2zeuLS3NNm6lrcodeA-V-86" value="" style="edgeStyle=elbowEdgeStyle;elbow=vertical;endArrow=none;rounded=0;" edge="1" parent="1">
          <mxGeometry x="155" y="452" width="100" height="100" as="geometry">
            <mxPoint x="300" y="501.9999999999999" as="sourcePoint" />
            <mxPoint x="245" y="502" as="targetPoint" />
          </mxGeometry>
        </mxCell>
        <mxCell id="2zeuLS3NNm6lrcodeA-V-87" value="{30s-60s}" style="edgeStyle=elbowEdgeStyle;elbow=horizontal;startArrow=open;endArrow=open;labelPosition=left;align=right;rounded=0;" edge="1" parent="1">
          <mxGeometry x="166.20563271604937" y="319" width="100" height="100" as="geometry">
            <mxPoint x="286" y="280" as="sourcePoint" />
            <mxPoint x="286" y="500" as="targetPoint" />
          </mxGeometry>
        </mxCell>
        <mxCell id="2zeuLS3NNm6lrcodeA-V-92" value="" style="edgeStyle=none;endArrow=none;dashed=1;rounded=0;" edge="1" parent="1" source="2zeuLS3NNm6lrcodeA-V-56">
          <mxGeometry x="481.5711805555559" y="429.6971450617284" width="100" height="100" as="geometry">
            <mxPoint x="556.7361111111112" y="374.6971450617284" as="sourcePoint" />
            <mxPoint x="452.5" y="554.1666666666667" as="targetPoint" />
          </mxGeometry>
        </mxCell>
        <mxCell id="2zeuLS3NNm6lrcodeA-V-108" value="账单导入" style="rounded=1;fontStyle=1;fillColor=#FFD966;strokeColor=none" vertex="1" parent="1">
          <mxGeometry x="155" y="110" width="150" height="30" as="geometry" />
        </mxCell>
        <mxCell id="2zeuLS3NNm6lrcodeA-V-124" value="validResult" style="edgeStyle=elbowEdgeStyle;elbow=vertical;dashed=1;verticalLabelPosition=bottom;verticalAlign=top;rounded=0;entryX=1.25;entryY=0.375;entryDx=0;entryDy=0;entryPerimeter=0;" edge="1" parent="1">
          <mxGeometry x="494.78" y="229" width="100" height="100" as="geometry">
            <mxPoint x="614.78" y="297" as="sourcePoint" />
            <mxPoint x="460.0000000000001" y="296.99999999999994" as="targetPoint" />
            <Array as="points">
              <mxPoint x="537.78" y="297" />
            </Array>
          </mxGeometry>
        </mxCell>
        <mxCell id="2zeuLS3NNm6lrcodeA-V-126" value="校验文件" style="html=1;align=left;spacingLeft=2;endArrow=block;rounded=0;edgeStyle=orthogonalEdgeStyle;curved=0;rounded=0;exitX=0.949;exitY=0.017;exitDx=0;exitDy=0;exitPerimeter=0;" edge="1" parent="1" source="2zeuLS3NNm6lrcodeA-V-65">
          <mxGeometry relative="1" as="geometry">
            <mxPoint x="624.78" y="270.19" as="sourcePoint" />
            <Array as="points">
              <mxPoint x="650" y="283" />
              <mxPoint x="650" y="300" />
              <mxPoint x="625" y="300" />
            </Array>
            <mxPoint x="624.78" y="299.20960784313735" as="targetPoint" />
          </mxGeometry>
        </mxCell>
        <mxCell id="2zeuLS3NNm6lrcodeA-V-129" value="BATCH_COUNT &lt;br&gt;= &lt;span style=&quot;box-sizing: border-box; color: rgb(209, 154, 102); font-family: Menlo, Monaco, Consolas, &amp;quot;Courier New&amp;quot;, monospace; font-size: 13px; background-color: rgb(41, 56, 64);&quot; class=&quot;hljs-number&quot;&gt;1000&lt;/span&gt;" style="html=1;align=left;spacingLeft=2;endArrow=block;rounded=0;edgeStyle=orthogonalEdgeStyle;curved=0;rounded=0;exitX=0.949;exitY=0.017;exitDx=0;exitDy=0;exitPerimeter=0;" edge="1" parent="1">
          <mxGeometry x="0.5594" y="-7" relative="1" as="geometry">
            <mxPoint x="624.78" y="350" as="sourcePoint" />
            <Array as="points">
              <mxPoint x="650.78" y="350" />
              <mxPoint x="650.78" y="367" />
              <mxPoint x="625.78" y="367" />
            </Array>
            <mxPoint x="625.56" y="366.20960784313735" as="targetPoint" />
            <mxPoint as="offset" />
          </mxGeometry>
        </mxCell>
        <mxCell id="2zeuLS3NNm6lrcodeA-V-130" value="" style="fillColor=#CC4125;strokeColor=#660000" vertex="1" parent="1">
          <mxGeometry x="618.78" y="371.3942901234568" width="10" height="80" as="geometry" />
        </mxCell>
        <mxCell id="2zeuLS3NNm6lrcodeA-V-131" value="invoke()" style="html=1;align=left;spacingLeft=2;endArrow=block;rounded=0;edgeStyle=orthogonalEdgeStyle;curved=0;rounded=0;exitX=0.949;exitY=0.017;exitDx=0;exitDy=0;exitPerimeter=0;entryX=1;entryY=0.75;entryDx=0;entryDy=0;" edge="1" parent="1" target="2zeuLS3NNm6lrcodeA-V-130">
          <mxGeometry relative="1" as="geometry">
            <mxPoint x="628.78" y="390.89" as="sourcePoint" />
            <Array as="points">
              <mxPoint x="670" y="391" />
              <mxPoint x="670" y="431" />
              <mxPoint x="650" y="431" />
            </Array>
            <mxPoint x="629.56" y="407.09960784313733" as="targetPoint" />
          </mxGeometry>
        </mxCell>
        <mxCell id="2zeuLS3NNm6lrcodeA-V-132" value="@Async&#xa;readExcelAndSaveAsync():&#xa;1、构造Future任务，执行完获取结果get()&#xa;2、打印处理结果日志" style="shape=note;align=left;fontSize=11;" vertex="1" parent="1">
          <mxGeometry x="760.0029938271605" y="290.00361111111107" width="120.02700617283949" height="109.82638888888889" as="geometry" />
        </mxCell>
        <mxCell id="2zeuLS3NNm6lrcodeA-V-133" value="" style="curved=1;endArrow=classic;html=1;rounded=0;entryX=0.015;entryY=0.64;entryDx=0;entryDy=0;entryPerimeter=0;" edge="1" parent="1" target="2zeuLS3NNm6lrcodeA-V-132">
          <mxGeometry width="50" height="50" relative="1" as="geometry">
            <mxPoint x="720" y="410" as="sourcePoint" />
            <mxPoint x="770" y="360" as="targetPoint" />
            <Array as="points">
              <mxPoint x="770" y="410" />
              <mxPoint x="720" y="360" />
            </Array>
          </mxGeometry>
        </mxCell>
        <mxCell id="2zeuLS3NNm6lrcodeA-V-134" value="mapper" style="shadow=1;fillColor=#A2C4C9;strokeColor=none" vertex="1" parent="1">
          <mxGeometry x="922.5039506172839" y="150" width="105" height="50" as="geometry" />
        </mxCell>
        <mxCell id="2zeuLS3NNm6lrcodeA-V-139" value="" style="edgeStyle=none;endArrow=none;dashed=1;rounded=0;" edge="1" parent="1" target="2zeuLS3NNm6lrcodeA-V-135">
          <mxGeometry x="899.4050694444445" y="254.92" width="100" height="100" as="geometry">
            <mxPoint x="975.07" y="199.92" as="sourcePoint" />
            <mxPoint x="974.64" y="489.92" as="targetPoint" />
          </mxGeometry>
        </mxCell>
        <mxCell id="2zeuLS3NNm6lrcodeA-V-135" value="" style="fillColor=#CC4125;strokeColor=#660000" vertex="1" parent="1">
          <mxGeometry x="970" y="450" width="10" height="50" as="geometry" />
        </mxCell>
        <mxCell id="2zeuLS3NNm6lrcodeA-V-140" value="batchInsert()" style="edgeStyle=elbowEdgeStyle;elbow=vertical;verticalLabelPosition=top;verticalAlign=bottom;rounded=0;entryX=0.224;entryY=0.947;entryDx=0;entryDy=0;entryPerimeter=0;" edge="1" parent="1">
          <mxGeometry x="622.28" y="529" width="100" height="100" as="geometry">
            <mxPoint x="624.78" y="464" as="sourcePoint" />
            <mxPoint x="972.2400000000002" y="464.76" as="targetPoint" />
          </mxGeometry>
        </mxCell>
        <mxCell id="2zeuLS3NNm6lrcodeA-V-141" value="" style="edgeStyle=none;verticalLabelPosition=top;verticalAlign=bottom;endArrow=none;startArrow=classic;dashed=1;rounded=0;exitX=1.133;exitY=0.916;exitDx=0;exitDy=0;exitPerimeter=0;" edge="1" parent="1">
          <mxGeometry x="850" y="406.49887345679014" width="100" height="100" as="geometry">
            <mxPoint x="626.1099999999999" y="494.67999999999995" as="sourcePoint" />
            <mxPoint x="970" y="493.99887345679014" as="targetPoint" />
          </mxGeometry>
        </mxCell>
        <mxCell id="2zeuLS3NNm6lrcodeA-V-142" value="result" style="edgeLabel;html=1;align=center;verticalAlign=middle;resizable=0;points=[];" vertex="1" connectable="0" parent="2zeuLS3NNm6lrcodeA-V-141">
          <mxGeometry relative="1" as="geometry">
            <mxPoint x="-18" y="1" as="offset" />
          </mxGeometry>
        </mxCell>
        <mxCell id="2zeuLS3NNm6lrcodeA-V-143" value="" style="edgeStyle=none;verticalLabelPosition=top;verticalAlign=bottom;endArrow=none;startArrow=classic;dashed=1;rounded=0;exitX=1.133;exitY=0.916;exitDx=0;exitDy=0;exitPerimeter=0;" edge="1" parent="1">
          <mxGeometry x="538.89" y="412.49887345679014" width="100" height="100" as="geometry">
            <mxPoint x="314.9999999999999" y="500.67999999999995" as="sourcePoint" />
            <mxPoint x="610" y="500" as="targetPoint" />
          </mxGeometry>
        </mxCell>
        <mxCell id="2zeuLS3NNm6lrcodeA-V-144" value="result" style="edgeLabel;html=1;align=center;verticalAlign=middle;resizable=0;points=[];" vertex="1" connectable="0" parent="2zeuLS3NNm6lrcodeA-V-143">
          <mxGeometry relative="1" as="geometry">
            <mxPoint x="-18" y="1" as="offset" />
          </mxGeometry>
        </mxCell>
      </root>
    </mxGraphModel>
  </diagram>
</mxfile>
